<svg xmlns="http://www.w3.org/2000/svg" width="145.181" height="132.641" viewBox="0 0 145.181 132.641"><defs><style>.a{fill:#009cff;}</style></defs><g transform="translate(-271 -161.813)"><path d="M399.856,388.7v-6.463h2.652c2.569,0,4.1,1.077,4.1,3.191v.083c0,2.071-1.657,3.19-4.143,3.19Zm-9.7,14.792h9.7v-7.872h3.149c7.831,0,13.176-3.729,13.176-10.731V384.8c0-6.878-5.262-10.317-12.969-10.317H390.161Zm-18.4-14.792v-6.463h2.652c2.569,0,4.1,1.077,4.1,3.191v.083c0,2.071-1.658,3.19-4.143,3.19Zm-9.7,14.792h9.7v-7.872h3.149c7.831,0,13.176-3.729,13.176-10.731V384.8c0-6.878-5.262-10.317-12.968-10.317H362.07ZM341.1,392.715l2.652-7.044,2.652,7.044Zm-14.294,10.773h10.358l1.492-3.895h10.151l1.533,3.895h10.524l-12.223-29.21h-9.613ZM310.03,388.281V382.6h4.226c2.237,0,3.688.912,3.688,2.776v.083c0,1.782-1.409,2.817-3.729,2.817Zm-9.7,15.206h9.7V395.2H312.1l5.469,8.287h11.062l-6.754-9.861a9.38,9.38,0,0,0,5.718-8.867v-.083a9.113,9.113,0,0,0-2.652-6.878c-2.031-2.03-5.3-3.314-10.441-3.314h-14.17Zm-11.85-9.529v.083c0,1.243-1.077,2.113-3.191,2.113h-4.848v-4.309h4.889c2.113,0,3.149.87,3.149,2.113m-.746-10.068c0,1.284-.995,1.989-3.066,1.989h-4.227v-4.061h4.185c2.072,0,3.108.7,3.108,1.989ZM271,403.487h16.076c7.334,0,11.146-3.4,11.146-8.038v-.083c0-3.977-2.4-5.966-6.132-7.044,3.108-1.077,5.179-3.19,5.179-6.629v-.083a6.2,6.2,0,0,0-1.782-4.517c-1.7-1.7-4.226-2.61-8.245-2.61H271Z" transform="translate(0 -109.033)"/><path class="a" d="M432.146,310.677l-13.193,2.52s-7.863.052-2.8,6.671c3.387,4.423,17.7,3.115,22.153,3.789,0,0,15.092-.881,16.326-18.541,0,0-5.314,17.233-22.49,5.56" transform="translate(-73.619 -73.541)"/><path class="a" d="M337.033,171.575a8.252,8.252,0,0,1,3.554-.443c1.022.06,2.041.216,3.067.373.864.13,1.731.263,2.6.351,4.074.42,7.282-.636,11.026-3.543,3.679-2.856,6.466-3.086,8.483-2.967a27.588,27.588,0,0,1,3.454.493c.654.118,1.292.239,1.923.331,4.166.608,7.409-.9,10.5-2.362a34.068,34.068,0,0,1,3.622-1.546c4.213-1.419,7.343.717,11.047,3.547a28.377,28.377,0,0,0,7.4,4.508,35.962,35.962,0,0,0,5.8,1.43c.933.172,1.863.349,2.781.567.428.119,7.579,2.33,4.78,16.035-.908,4.456.569,9.122.018,14.581-1.437,14.232-5.063,30.856-14.3,34.685h0a15.388,15.388,0,0,1-5.371.749h0c-3.486-.207-4.646-.89-5.722-4.27l-.106-.328c.043-1.146.164-2.388.337-3.679.071-.424.144-.856.234-1.32l-.089.3c1.3-8.477,4.739-18.883,5.593-22.267a38.29,38.29,0,0,0,1.276-4.942c.3-3.079-.786-2.79-.7-2.984l-2.651,5.551-3.5,11.642-3.535,11.967a25.411,25.411,0,0,1-1.219,2.693l-1.091,1.73c-.124.194-3.31,5.023-9.081,4.686a13.742,13.742,0,0,1-5.82-1.882c-1.484-1.344-.607-4.523-.474-7.128.059-.648.131-1.33.224-2.081l-.016.023c.814-5.687,1.821-9.026,2.2-11.143.316-1.755,2.164-10.83,2.6-14.625.21-1.81-.026-4.983-.453-5.544l-1.766,6.013-2.224,11.094L366.957,231.5a4.788,4.788,0,0,1-3.352,2.861,4.859,4.859,0,0,1-.65.2c-.134.033-.266.061-.4.083a18.411,18.411,0,0,1-5.006.458c-3.887-.23-5.59-1.923-7.458-5.169a65.557,65.557,0,0,1,.131-10.419l-.079.157c.211-3.551.4-6.643.471-7.364,0,0-.084-11.447-.677-15.558-.145.008-.275,2.782-.416,3.109.347,3.475-1.893,11.931-1.893,11.931-.181,1.919-.6,16.345-.642,16.981a7.657,7.657,0,0,1-.222,1.679l-1.09.617a11.169,11.169,0,0,1-5.295,1.229c-2.822-.167-4.841-1.941-6.17-5.419-3.3-8.629-4.089-20.9-4.567-30.229l-.038-.7c-.526-10.238-.432-21.409,7.43-24.376" transform="translate(-29.98)"/></g></svg>